<svg width="712" height="398" viewBox="0 0 712 398" fill="none" xmlns="http://www.w3.org/2000/svg">
<path d="M712 199C712 308.905 390.607 398 268 398C145.393 398 0 308.905 0 199C0 89.0953 145.393 0 268 0C390.607 0 712 89.0953 712 199Z" fill="#FCF9F9"/>
<circle cx="284" cy="215" r="117" fill="#482FF7"/>
<rect y="188" width="711" height="22" fill="#0E153A"/>
<rect x="9" y="143" width="678" height="22" fill="#0E153A"/>
<rect x="40" y="98" width="581" height="22" fill="#0E153A"/>
<rect x="95" y="53" width="426" height="22" fill="#0E153A"/>
<rect x="198" y="8" width="155" height="22" fill="#0E153A"/>
<rect x="14" y="233" width="657" height="22" fill="#0E153A"/>
<rect x="40" y="278" width="574" height="22" fill="#0E153A"/>
<rect x="95" y="323" width="420" height="22" fill="#0E153A"/>
<rect x="215" y="368" width="138" height="22" fill="#0E153A"/>
</svg>
